<svg xmlns="http://www.w3.org/2000/svg" viewBox="0 0 512 512"><g fill="#333"><path stroke="#501616" stroke-width=".693" d="M145 431c-39 8.42-64.2 20.9-64.2 34.7 0 25.4 82.9 46 185 46 102 0 185-20.6 185-46 0-13.8-25-26.3-63.8-34.7 13.4 5.49 21.4 11.9 21.4 18.8 0 19.9-64 36.2-143 36.2-78.5 0-142-16.3-142-36.2 0-6.96 7.87-13.3 21.4-18.8h-.003z"/><path d="M113 192s39.9-11.1 45.8-9.55c5.86 1.59 29.5-3.82 34.6-7.57 5.13-3.75 47.7-5.57 47.7-5.57l24.9.953 1.66 15.1s-60.6 11.5-65.9 9.28c-5.23-2.27-36.2 4.13-40.6 8.59s-67.1 16.1-67.1 16.1l-1.91-14.9zM89.8 36.1l24.6-31.6c2.68-3.44 8.37-4.51 12.7-2.38l39.7 19.5c4.34 2.13 5.67 6.65 2.99 10.1l-36.8-11.9-12.7 2.38-27.5 24c-4.34-2.13-5.67-6.65-2.99-10.1z"/></g><path fill="gray" d="M166 121c-2.06 4.46-10.7 5.83-14.6 3.11s-10.1-6.98-12.1-8.37c-2.02-1.4 11.5 49.3 15.5 51.6 3.95 2.28 30.1-2.32 32.8-5.68 2.61-3.35-15.1-55.6-16.3-53.1-1.18 2.55-3.16 7.93-5.22 12.4z"/><g fill="#a5a5a4"><path d="m231 345 18.2 63.9c.631.465 1.26.928 1.91 1.36a47.241 47.241 0 0 0 3.75 2.269c.422.228.845.446 1.27.657a37.786 37.786 0 0 0 2.56 1.148 32.2 32.2 0 0 0 2.56.909 27.767 27.767 0 0 0 2.53.648c.419.085.837.158 1.25.219a19.59 19.59 0 0 0 2.46.216 17.027 17.027 0 0 0 2.38-.103c.391-.044.778-.103 1.16-.176a15.028 15.028 0 0 0 2.24-.62 13.362 13.362 0 0 0 2.12-.991 14.86 14.86 0 0 0 1.01-.642c.329-.23.651-.479.967-.744.494-.415 1.02-.9 1.54-1.39l-20.7-60.7c-.315.403-.63.806-.955 1.18-.434.496-.877.965-1.33 1.4-.452.437-.912.843-1.38 1.22-.469.375-.946.718-1.43 1.03-.486.31-.981.586-1.48.828-.503.242-1.02.448-1.54.62-1.71-.876-3.37-1.78-4.98-2.71a125.51 125.51 0 0 1-9.11-5.79c-1.42-.993-2.79-1.99-4.11-3-.314-.239-.598-.476-.906-.714zM205 322s-.852 1.38-2.21 3.89a152.657 152.657 0 0 0-5.23 10.73c-.504 1.14-1.02 2.34-1.53 3.59a166.65 166.65 0 0 0-1.56 3.9 148.63 148.63 0 0 0-1.55 4.2c-.35.987-.691 2.02-1.03 3.05l22.2 101 7.51 3.92c-.116-.136-.238-.263-.353-.401a41.58 41.58 0 0 1-1.4-1.78c-.455-.61-.897-1.24-1.33-1.88-.432-.646-.852-1.31-1.26-1.99a55.36 55.36 0 0 1-3.36-6.57c-.339-.778-.667-1.57-.983-2.38s-.621-1.63-.915-2.47a82.766 82.766 0 0 1-1.625-5.19 96.474 96.474 0 0 1-1.355-5.51c-.203-.944-.395-1.9-.576-2.87s-.351-1.95-.51-2.94-.307-1.99-.444-3-.264-2.04-.378-3.07a140.713 140.713 0 0 1-.558-6.32c-.071-1.07-.131-2.15-.181-3.24a68.695 68.695 0 0 1-.309-6.04 65.52 65.52 0 0 1 .216-5.71 63.929 63.929 0 0 1 1.155-7.92c.176-.836.366-1.66.571-2.46.204-.806.422-1.6.651-2.37.23-.776.47-1.54.72-2.28.251-.746.512-1.48.782-2.19.27-.716.55-1.42.835-2.1.286-.685.58-1.35.88-2.01a66.902 66.902 0 0 1 2.814-5.45c.321-.558.644-1.1.967-1.63.323-.526.646-1.03.968-1.53.448-.685.886-1.3 1.32-1.92l-9.82-37.1c-.122-.159-.313-.385-.428-.536a75.49 75.49 0 0 1-1.99-2.73c-.446-.639-.672-.988-.672-.988zM242 298l-32.1-93.8c-1.92-5.6-50.9 4.67-49.6 9.84l18.5 77.4c1.12-1.47 2.25-2.96 3.36-4.29 1.51-1.82 2.99-3.51 4.43-5.08 1.44-1.56 2.83-3 4.14-4.3 1.32-1.31 2.56-2.48 3.71-3.53.517-.471.935-.819 1.41-1.24l-13-45c-.458-1.5.318-3.69 1.29-4.91.976-1.22 2.55-2.15 4.5-2.5 3.9-.708 7.79 1.15 8.71 4.16l15 52.5c1.09.944 2.13 1.86 3.34 2.86 1.98 1.65 4.09 3.36 6.29 5.05 2.2 1.7 4.48 3.39 6.79 5 1.15.804 2.31 1.59 3.48 2.34s2.32 1.48 3.48 2.17c1.15.687 2.3 1.34 3.44 1.94.955.507 1.89.96 2.82 1.4z"/></g><path fill="gray" d="M136 104s3.18-9.54 4.77-11.9c1.6-2.38 11.9-4.72 14.8-2.88 2.86 1.84 12.9 7.88 12.9 7.88-1.21-6.29-19.1-59.1-19.1-59.1l-13.7-6.73-10.8 2.09-7.62 11.8s20.1 64.2 18.8 58.8z"/><path d="M222 466s-68.6-6.57-68.6-93.7c0-67.4 49-102 49-102s22.9 23 40.4 31.2c11.4-24.4 2-33.1 11.7-62.1 4.69-14 53.5-39.6 53.5-39.6s8.27 46.7 14 61.8c7.48 19.7 41.8 61 46 106 4.45 48.3-67.3 99.4-67.3 99.4s31.7-39.4 31.7-85.5c0-28.8-17.7-67.3-32.2-94.4-10-18.6-15-42-15-42s-11.4 8.2-10.9 27.3c.757 32.1-7.27 77.2-24.4 83-28.1-14.8-44-37.8-44-37.8s-59.6 90.6 16 148z"/><path d="M251 469c34.6-1.79 64.1-25.1 64.1-57.4s-9.01-33.2-9.01-33.2-17.4 26.6-27.7 35.6-28.1-.875-38.4-13.4c-10.4-10.8-11.4-48.2-11.4-48.2s-24.2 19.7-20.8 53.8c1.73 35.9 15.6 62.8 43.3 62.8z"/></svg>